<svg width="16" height="16" viewBox="0 0 16 16" fill="none" xmlns="http://www.w3.org/2000/svg">
<path d="M0.176025 0.176025H15.824V15.8242H0.176025V0.176025Z" fill="#F0DB4F"/>
<path d="M14.5433 12.0921C14.4287 11.3782 13.9632 10.7786 12.5843 10.2195C12.1053 9.99936 11.5713 9.84173 11.4122 9.47873C11.3557 9.26748 11.3482 9.14848 11.3839 9.02061C11.4866 8.60561 11.9819 8.47623 12.3746 8.59523C12.6274 8.67998 12.8668 8.87486 13.0112 9.18573C13.6864 8.74848 13.6851 8.75136 14.1566 8.45086C13.9839 8.18323 13.8918 8.05973 13.7788 7.94523C13.3727 7.49161 12.8193 7.25798 11.9343 7.27586L11.4733 7.33548C11.0316 7.44711 10.6106 7.67898 10.3637 7.98986C9.62295 8.83036 9.8342 10.3014 10.7356 10.9067C11.6236 11.5732 12.9281 11.7249 13.0947 12.3481C13.2568 13.1111 12.5339 13.3581 11.8154 13.2704C11.2859 13.1602 10.9914 12.8911 10.6731 12.4017C10.0871 12.7409 10.0871 12.7409 9.48457 13.0874C9.62745 13.3997 9.77757 13.5411 10.0171 13.8117C11.1506 14.9615 13.9871 14.905 14.4958 13.1647C14.5164 13.105 14.6534 12.7065 14.5433 12.0921ZM8.6827 7.36798H7.21907L7.21307 11.152C7.21307 11.9567 7.2547 12.6945 7.12382 12.9206C6.9097 13.3654 6.35482 13.3102 6.10195 13.224C5.84457 13.0975 5.7137 12.9176 5.56207 12.6634C5.52045 12.5904 5.4892 12.5339 5.4787 12.5295L4.2887 13.2582C4.48657 13.6644 4.77807 14.0169 5.15145 14.2459C5.7092 14.5806 6.45882 14.6832 7.24282 14.5032C7.75307 14.3546 8.19332 14.0467 8.42382 13.5781C8.75707 12.9637 8.68557 12.2201 8.68257 11.3976C8.69007 10.0557 8.6827 8.71411 8.6827 7.36798Z" fill="#323330"/>
</svg>
